<?xml version="1.0" standalone="no"?><!DOCTYPE svg PUBLIC "-//W3C//DTD SVG 1.1//EN" "http://www.w3.org/Graphics/SVG/1.1/DTD/svg11.dtd"><svg t="1722431194511" class="icon" viewBox="0 0 1024 1024" version="1.1" xmlns="http://www.w3.org/2000/svg" p-id="4388" xmlns:xlink="http://www.w3.org/1999/xlink" width="200" height="200"><path d="M857.34902 0H0v1024h1024V0h-166.65098z m-783.058824 949.709804v-142.556863h130.509804v142.556863H74.290196z m875.419608 0h-134.52549V670.619608l-180.705883-200.784314V341.333333c46.180392-16.062745 78.305882-58.227451 78.305883-108.423529 0-64.25098-52.203922-114.447059-114.447059-114.447059s-114.447059 50.196078-114.447059 114.447059c0 50.196078 32.12549 94.368627 78.305882 108.423529v156.611765l180.705883 200.784314v250.980392H281.098039V732.862745H74.290196v-220.862745h134.52549l200.784314 224.878431c-8.031373 16.062745-14.054902 34.133333-14.054902 54.211765 0 62.243137 50.196078 114.447059 114.447059 114.447059s114.447059-50.196078 114.447059-114.447059-52.203922-114.447059-114.447059-114.447059c-16.062745 0-32.12549 4.015686-46.180392 10.039216l-220.862745-248.972549-2.007844 2.007843v-2.007843H74.290196V74.290196h248.972549v44.172549l-24.094118 14.054902c-20.078431-16.062745-46.180392-28.109804-74.290196-28.109804-62.243137 0-114.447059 50.196078-114.447058 114.447059 0 62.243137 50.196078 114.447059 114.447058 114.447059 62.243137 0 114.447059-50.196078 114.447059-114.447059 0-8.031373 0-16.062745-2.007843-24.094118l60.235294-34.133333V74.290196H783.058824v357.396079h166.65098v518.023529zM622.431373 283.105882h-48.188236c-18.070588-10.039216-32.12549-28.109804-32.12549-50.196078 0-30.117647 26.101961-56.219608 56.219608-56.219608 32.12549 0 56.219608 26.101961 56.219608 56.219608 0 22.086275-14.054902 40.156863-32.12549 50.196078z m-110.431373 451.764706c32.12549 0 56.219608 26.101961 56.219608 56.219608s-24.094118 56.219608-56.219608 56.219608c-32.12549 0-56.219608-26.101961-56.219608-56.219608 0-32.12549 26.101961-56.219608 56.219608-56.219608zM281.098039 218.854902c2.007843 32.12549-24.094118 56.219608-56.219608 56.219608-32.12549 0-56.219608-26.101961-56.219607-56.219608 0-32.12549 26.101961-56.219608 56.219607-56.219608 32.12549 0 56.219608 26.101961 56.219608 56.219608z m576.250981 138.541176V74.290196h92.360784v283.105882h-92.360784z" fill="#D14341" p-id="4389"></path></svg>